<svg xmlns="http://www.w3.org/2000/svg" xmlns:xlink="http://www.w3.org/1999/xlink" width="800" zoomAndPan="magnify" viewBox="0 0 600 599.999999" height="800" preserveAspectRatio="xMidYMid meet" version="1.0"><path fill="#8247e5" d="M 268.949219 230.160156 C 295.617188 212.910156 333.816406 207.515625 323.757812 168.089844 C 323.070312 143.609375 327.113281 129.179688 301.710938 115.394531 C 263.5 93.71875 225.4375 71.746094 187.882812 48.953125 C 172.230469 39.457031 157.882812 38.617188 142.136719 47.667969 C 101.785156 70.875 61.203125 93.675781 20.789062 116.765625 C 7.617188 124.289062 0.53125 135.035156 0.734375 151.097656 C 1.316406 196.835938 2.011719 242.617188 0.683594 288.324219 C 0.0976562 308.421875 8.171875 320.695312 24.488281 329.835938 C 63.953125 351.941406 103.488281 373.933594 142.660156 396.546875 C 156.683594 404.644531 169.960938 405.132812 183.777344 397.210938 C 259.296875 354.078125 334.449219 310.300781 410.085938 267.378906 C 427.179688 257.734375 444.296875 258.851562 461.296875 269.21875 C 558.734375 323.496094 538.074219 306.117188 540.375 413.46875 C 542.417969 454.113281 486.753906 464.964844 459.894531 486.097656 C 441.253906 497.644531 423.480469 496.179688 405.296875 485.394531 C 354.144531 451.914062 316.40625 455.855469 327.441406 381.710938 C 327.988281 373.511719 324.425781 370.738281 317.171875 374.824219 C 303.769531 382.363281 290.558594 390.25 277.417969 398.234375 C 275.328125 399.5 272.515625 402.074219 272.5625 403.980469 C 273.101562 424.90625 273.109375 445.949219 275.707031 466.648438 C 276.433594 472.414062 284.378906 478.609375 290.449219 482.148438 C 330.296875 505.386719 370.855469 527.417969 410.5 550.984375 C 427.898438 561.332031 443.332031 559.964844 459.925781 550.34375 C 496.804688 528.960938 533.644531 507.46875 571.097656 487.125 C 590.300781 476.695312 598.746094 462.285156 598.332031 440.460938 C 597.570312 400.449219 597.074219 360.355469 598.800781 320.398438 C 599.882812 295.265625 591.128906 279.109375 568.980469 267.253906 C 531.421875 247.148438 494.753906 225.371094 457.910156 203.957031 C 442.078125 194.757812 426.964844 193.660156 410.664062 203.183594 C 336.707031 246.382812 262.351562 288.902344 188.566406 332.382812 C 170.78125 342.863281 154.878906 342.261719 137.902344 331.910156 C 42.660156 275.050781 54.050781 297.589844 55.335938 185.59375 C 55.003906 167.648438 62.773438 155.695312 77.953125 147.15625 C 114.292969 130.425781 151.28125 86.667969 192.890625 116.019531 C 261.214844 162.6875 272.734375 135.183594 268.949219 230.160156 Z M 268.949219 230.160156 " fill-opacity="1" fill-rule="nonzero"/><path fill="#8247e5" d="M 268.949219 230.160156 C 272.863281 135.316406 260.867188 162.441406 192.890625 116.019531 C 151.25 86.636719 114.332031 130.460938 77.953125 147.152344 C 62.773438 155.695312 55.003906 167.648438 55.332031 185.59375 C 54.03125 297.152344 42.644531 275.210938 137.902344 331.90625 C 154.878906 342.261719 170.78125 342.863281 188.566406 332.378906 C 262.351562 288.902344 336.707031 246.382812 410.664062 203.183594 C 426.964844 193.660156 442.074219 194.761719 457.90625 203.960938 C 494.753906 225.371094 531.421875 247.148438 568.980469 267.253906 C 591.128906 279.109375 599.882812 295.269531 598.800781 320.398438 C 597.074219 360.359375 597.570312 400.453125 598.332031 440.464844 C 598.746094 462.285156 590.300781 476.699219 571.097656 487.128906 C 533.640625 507.472656 496.804688 528.964844 459.925781 550.347656 C 443.328125 559.96875 427.894531 561.335938 410.5 550.988281 C 370.855469 527.417969 330.296875 505.386719 290.449219 482.152344 C 284.382812 478.609375 276.433594 472.414062 275.710938 466.652344 C 273.109375 445.949219 273.101562 424.910156 272.5625 403.984375 C 272.515625 402.078125 275.328125 399.503906 277.417969 398.234375 C 290.5625 390.25 303.773438 382.367188 317.171875 374.824219 C 324.429688 370.742188 327.988281 373.515625 327.441406 381.714844 C 316.3125 455.738281 354.378906 452.09375 405.300781 485.394531 C 423.480469 496.183594 441.257812 497.648438 459.894531 486.097656 C 486.835938 464.992188 542.449219 453.984375 540.382812 413.472656 C 538.097656 306.558594 558.726562 323.324219 461.300781 269.226562 C 444.296875 258.859375 427.183594 257.738281 410.089844 267.382812 C 334.453125 310.304688 259.300781 354.085938 183.78125 397.214844 C 169.964844 405.136719 156.6875 404.648438 142.664062 396.550781 C 103.488281 373.9375 63.957031 351.945312 24.492188 329.839844 C 8.171875 320.695312 0.0976562 308.421875 0.683594 288.324219 C 2.011719 242.617188 1.316406 196.835938 0.734375 151.097656 C 0.53125 135.035156 7.617188 124.289062 20.789062 116.765625 C 61.203125 93.675781 101.785156 70.871094 142.136719 47.671875 C 157.882812 38.617188 172.230469 39.457031 187.882812 48.957031 C 225.4375 71.746094 263.5 93.71875 301.710938 115.394531 C 327.015625 129.15625 323.109375 143.515625 323.753906 168.09375 C 333.804688 207.503906 295.632812 212.929688 268.949219 230.160156 Z M 268.949219 230.160156 " fill-opacity="1" fill-rule="nonzero"/></svg>